<svg width="194" height="157" viewBox="0 0 194 157" fill="none" xmlns="http://www.w3.org/2000/svg">
<path fill-rule="evenodd" clip-rule="evenodd" d="M78.6074 0.416647C83.6622 0.409932 88.5861 2.03376 92.6564 5.04985V59H28.3427C27.9422 57.0537 27.7393 55.0657 27.7406 53.0666C27.742 45.6456 30.5466 38.5026 35.5859 33.0846C40.6253 27.6665 47.5229 24.3786 54.8812 23.8868C54.9879 17.6255 57.5345 11.6568 61.9725 7.26682C66.4104 2.8768 72.3844 0.416749 78.6074 0.416647ZM92.6564 104.5V149.576C87.5943 153.995 81.1156 156.425 74.4141 156.417C68.5523 156.415 62.8396 154.558 58.0843 151.109C53.329 147.66 49.7721 142.793 47.9168 137.197L46.4634 132.794C39.9368 132.009 33.8466 129.09 29.1271 124.486C24.4077 119.882 21.3196 113.846 20.3367 107.306C20.1964 106.373 20.1001 105.436 20.0473 104.5H92.6564ZM116.394 0.416647C122.617 0.416749 128.591 2.8768 133.029 7.26682C137.467 11.6568 140.014 17.6255 140.121 23.8868C147.479 24.3786 154.376 27.6665 159.416 33.0846C164.455 38.5026 167.26 45.6456 167.261 53.0666C167.262 55.0657 167.059 57.0537 166.658 59H102.345V5.04985C106.416 2.03376 111.34 0.409932 116.394 0.416647ZM102.345 104.288V149.576C107.24 153.831 113.612 156.417 120.588 156.417C126.449 156.415 132.161 154.559 136.917 151.11C141.672 147.662 145.229 142.796 147.085 137.201L148.538 132.794C155.064 132.007 161.154 129.087 165.872 124.483C170.591 119.878 173.679 113.843 174.661 107.303C174.812 106.3 174.912 105.294 174.962 104.288H102.345Z" fill="#1507BF"/>
<path d="M10.5887 79.2172H17.0452C19.008 79.2172 20.5403 78.7179 21.6423 77.7193C22.7786 76.6863 23.3468 75.3089 23.3468 73.5871C23.3468 71.831 22.7786 70.4363 21.6423 69.4033C20.5403 68.3703 19.008 67.8537 17.0452 67.8537H10.5887V79.2172ZM17.975 84.6923H10.5887V99H4.39043V62.3786H17.975C21.4529 62.3786 24.2593 63.4289 26.3943 65.5294C28.5637 67.6299 29.6483 70.2986 29.6483 73.5355C29.6483 76.8068 28.5637 79.4927 26.3943 81.5932C24.2593 83.6593 21.4529 84.6923 17.975 84.6923ZM41.6631 99H35.3616V62.3786H41.6631V99ZM78.6457 62.3786L66.4558 80.7151L78.594 99H71.1561L62.6335 85.6221L54.0076 99H46.7246L58.9662 80.6635L46.8279 62.3786H54.2659L62.7885 75.8082L71.3627 62.3786H78.6457ZM106.772 96.2108C104.224 98.5868 100.952 99.7748 96.958 99.7748C92.9636 99.7748 89.6922 98.5868 87.1441 96.2108C84.5959 93.8348 83.3218 90.5118 83.3218 86.2419V62.3786H89.4684V85.8803C89.4684 88.4285 90.1227 90.4085 91.4312 91.8203C92.7742 93.1977 94.6164 93.8864 96.958 93.8864C99.334 93.8864 101.176 93.1977 102.485 91.8203C103.793 90.443 104.448 88.463 104.448 85.8803V62.3786H110.646V86.2419C110.646 90.5118 109.355 93.8348 106.772 96.2108ZM159.282 99H153.136V72.0376L141.721 99H136.349L125.037 72.1409V99H118.994V62.3786H127.258L139.138 90.3224L150.863 62.3786H159.282V99ZM190.697 99H168.073V62.3786H190.697V68.1637H174.272V77.8743H189.147V83.5043H174.272V93.215H190.697V99Z" fill="#1507BF"/>
</svg>
